<svg width="30" height="23" viewBox="0 0 30 23" fill="none" xmlns="http://www.w3.org/2000/svg">
<path fill-rule="evenodd" clip-rule="evenodd" d="M11.0002 -5.33332C11.0002 -4.9797 10.8597 -4.64056 10.6096 -4.39051C10.3596 -4.14047 10.0205 -3.99999 9.66683 -3.99999C9.31321 -3.99999 8.97407 -4.14047 8.72402 -4.39051C8.47397 -4.64056 8.3335 -4.9797 8.3335 -5.33332C8.3335 -5.68695 8.47397 -6.02608 8.72402 -6.27613C8.97407 -6.52618 9.31321 -6.66666 9.66683 -6.66666C10.0205 -6.66666 10.3596 -6.52618 10.6096 -6.27613C10.8597 -6.02608 11.0002 -5.68695 11.0002 -5.33332ZM16.3335 -5.33332C16.3335 -4.9797 16.193 -4.64056 15.943 -4.39051C15.6929 -4.14047 15.3538 -3.99999 15.0002 -3.99999C14.6465 -3.99999 14.3074 -4.14047 14.0574 -4.39051C13.8073 -4.64056 13.6668 -4.9797 13.6668 -5.33332C13.6668 -5.68695 13.8073 -6.02608 14.0574 -6.27613C14.3074 -6.52618 14.6465 -6.66666 15.0002 -6.66666C15.3538 -6.66666 15.6929 -6.52618 15.943 -6.27613C16.193 -6.02608 16.3335 -5.68695 16.3335 -5.33332ZM20.3335 -3.99999C20.6871 -3.99999 21.0263 -4.14047 21.2763 -4.39051C21.5264 -4.64056 21.6668 -4.9797 21.6668 -5.33332C21.6668 -5.68695 21.5264 -6.02608 21.2763 -6.27613C21.0263 -6.52618 20.6871 -6.66666 20.3335 -6.66666C19.9799 -6.66666 19.6407 -6.52618 19.3907 -6.27613C19.1406 -6.02608 19.0002 -5.68695 19.0002 -5.33332C19.0002 -4.9797 19.1406 -4.64056 19.3907 -4.39051C19.6407 -4.14047 19.9799 -3.99999 20.3335 -3.99999ZM11.0002 21.3333C11.0002 21.687 10.8597 22.0261 10.6096 22.2762C10.3596 22.5262 10.0205 22.6667 9.66683 22.6667C9.31321 22.6667 8.97407 22.5262 8.72402 22.2762C8.47397 22.0261 8.3335 21.687 8.3335 21.3333C8.3335 20.9797 8.47397 20.6406 8.72402 20.3905C8.97407 20.1405 9.31321 20 9.66683 20C10.0205 20 10.3596 20.1405 10.6096 20.3905C10.8597 20.6406 11.0002 20.9797 11.0002 21.3333ZM16.3335 21.3333C16.3335 21.687 16.193 22.0261 15.943 22.2762C15.6929 22.5262 15.3538 22.6667 15.0002 22.6667C14.6465 22.6667 14.3074 22.5262 14.0574 22.2762C13.8073 22.0261 13.6668 21.687 13.6668 21.3333C13.6668 20.9797 13.8073 20.6406 14.0574 20.3905C14.3074 20.1405 14.6465 20 15.0002 20C15.3538 20 15.6929 20.1405 15.943 20.3905C16.193 20.6406 16.3335 20.9797 16.3335 21.3333ZM20.3335 22.6667C20.6871 22.6667 21.0263 22.5262 21.2763 22.2762C21.5264 22.0261 21.6668 21.687 21.6668 21.3333C21.6668 20.9797 21.5264 20.6406 21.2763 20.3905C21.0263 20.1405 20.6871 20 20.3335 20C19.9799 20 19.6407 20.1405 19.3907 20.3905C19.1406 20.6406 19.0002 20.9797 19.0002 21.3333C19.0002 21.687 19.1406 22.0261 19.3907 22.2762C19.6407 22.5262 19.9799 22.6667 20.3335 22.6667ZM29.6668 13.3333C29.6668 12.9797 29.5264 12.6406 29.2763 12.3905C29.0263 12.1405 28.6871 12 28.3335 12C27.9799 12 27.6407 12.1405 27.3907 12.3905C27.1406 12.6406 27.0002 12.9797 27.0002 13.3333C27.0002 13.687 27.1406 14.0261 27.3907 14.2762C27.6407 14.5262 27.9799 14.6667 28.3335 14.6667C28.6871 14.6667 29.0263 14.5262 29.2763 14.2762C29.5264 14.0261 29.6668 13.687 29.6668 13.3333ZM29.6668 8.00001C29.6668 7.64639 29.5264 7.30725 29.2763 7.0572C29.0263 6.80715 28.6871 6.66668 28.3335 6.66668C27.9799 6.66668 27.6407 6.80715 27.3907 7.0572C27.1406 7.30725 27.0002 7.64639 27.0002 8.00001C27.0002 8.35363 27.1406 8.69277 27.3907 8.94282C27.6407 9.19287 27.9799 9.33334 28.3335 9.33334C28.6871 9.33334 29.0263 9.19287 29.2763 8.94282C29.5264 8.69277 29.6668 8.35363 29.6668 8.00001ZM28.3335 1.33334C28.6871 1.33334 29.0263 1.47382 29.2763 1.72387C29.5264 1.97392 29.6668 2.31306 29.6668 2.66668C29.6668 3.0203 29.5264 3.35944 29.2763 3.60949C29.0263 3.85953 28.6871 4.00001 28.3335 4.00001C27.9799 4.00001 27.6407 3.85953 27.3907 3.60949C27.1406 3.35944 27.0002 3.0203 27.0002 2.66668C27.0002 2.31306 27.1406 1.97392 27.3907 1.72387C27.6407 1.47382 27.9799 1.33334 28.3335 1.33334ZM1.66683 12C2.02045 12 2.35959 12.1405 2.60964 12.3905C2.85969 12.6406 3.00016 12.9797 3.00016 13.3333C3.00016 13.687 2.85969 14.0261 2.60964 14.2762C2.35959 14.5262 2.02045 14.6667 1.66683 14.6667C1.31321 14.6667 0.974069 14.5262 0.72402 14.2762C0.473972 14.0261 0.333496 13.687 0.333496 13.3333C0.333496 12.9797 0.473972 12.6406 0.72402 12.3905C0.974069 12.1405 1.31321 12 1.66683 12ZM1.66683 6.66668C2.02045 6.66668 2.35959 6.80715 2.60964 7.0572C2.85969 7.30725 3.00016 7.64639 3.00016 8.00001C3.00016 8.35363 2.85969 8.69277 2.60964 8.94282C2.35959 9.19287 2.02045 9.33334 1.66683 9.33334C1.31321 9.33334 0.974069 9.19287 0.72402 8.94282C0.473972 8.69277 0.333496 8.35363 0.333496 8.00001C0.333496 7.64639 0.473972 7.30725 0.72402 7.0572C0.974069 6.80715 1.31321 6.66668 1.66683 6.66668ZM3.00016 2.66668C3.00016 2.31306 2.85969 1.97392 2.60964 1.72387C2.35959 1.47382 2.02045 1.33334 1.66683 1.33334C1.31321 1.33334 0.974069 1.47382 0.72402 1.72387C0.473972 1.97392 0.333496 2.31306 0.333496 2.66668C0.333496 3.0203 0.473972 3.35944 0.72402 3.60949C0.974069 3.85953 1.31321 4.00001 1.66683 4.00001C2.02045 4.00001 2.35959 3.85953 2.60964 3.60949C2.85969 3.35944 3.00016 3.0203 3.00016 2.66668ZM21.6668 1.04904e-05H8.3335C7.97987 1.04904e-05 7.64074 0.140486 7.39069 0.390535C7.14064 0.640584 7.00016 0.979722 7.00016 1.33334V14.6667C7.00016 15.0203 7.14064 15.3594 7.39069 15.6095C7.64074 15.8595 7.97987 16 8.3335 16H21.6668C22.0205 16 22.3596 15.8595 22.6096 15.6095C22.8597 15.3594 23.0002 15.0203 23.0002 14.6667V1.33334C23.0002 0.979722 22.8597 0.640584 22.6096 0.390535C22.3596 0.140486 22.0205 1.04904e-05 21.6668 1.04904e-05ZM8.3335 -2.66666C7.27263 -2.66666 6.25521 -2.24523 5.50507 -1.49508C4.75492 -0.744938 4.3335 0.272478 4.3335 1.33334V14.6667C4.3335 15.7275 4.75492 16.745 5.50507 17.4951C6.25521 18.2453 7.27263 18.6667 8.3335 18.6667H21.6668C22.7277 18.6667 23.7451 18.2453 24.4953 17.4951C25.2454 16.745 25.6668 15.7275 25.6668 14.6667V1.33334C25.6668 0.272478 25.2454 -0.744938 24.4953 -1.49508C23.7451 -2.24523 22.7277 -2.66666 21.6668 -2.66666H8.3335ZM17.6668 5.33334H12.3335V10.6667H17.6668V5.33334ZM11.0002 2.66668C10.2638 2.66668 9.66683 3.26363 9.66683 4.00001V12C9.66683 12.7364 10.2638 13.3333 11.0002 13.3333H19.0002C19.7365 13.3333 20.3335 12.7364 20.3335 12V4.00001C20.3335 3.26363 19.7365 2.66668 19.0002 2.66668H11.0002Z" fill="white"/>
</svg>
