<svg width="22" height="27" viewBox="0 0 22 27" fill="none" xmlns="http://www.w3.org/2000/svg">
<path d="M15.4109 4.05581C21.0311 7.53189 22.7889 14.9685 19.3172 20.5816C16.1143 25.76 9.53513 27.6492 4.1224 25.1815C3.36328 24.8354 3.15038 23.8918 3.59631 23.1867C4.03598 22.4914 4.9507 22.2938 5.7111 22.6075C9.72019 24.2614 14.4332 22.8247 16.7881 19.0174C19.4077 14.782 18.0991 9.24589 13.8584 6.62303C11.7381 5.3116 9.33069 5.09249 7.08327 5.64255L7.53591 7.5503L0.483878 5.40573L5.82985 0.34702L6.38015 2.66791C9.35567 1.96851 12.6264 2.33358 15.4365 4.07161L15.4109 4.05581Z" fill="white"/>
</svg>
