<svg width="27" height="27" viewBox="0 0 27 27" fill="none" xmlns="http://www.w3.org/2000/svg">
<path d="M23.8801 12.4732H26.6623C26.5774 11.047 26.2636 9.64385 25.733 8.31755L23.2903 9.7297C23.6019 10.5973 23.8064 11.5165 23.8801 12.4732ZM19.0351 1.22473C17.6831 0.580071 16.2315 0.170355 14.7423 0.0131114V2.82768C15.7427 2.9584 16.719 3.23279 17.6412 3.64238L19.0351 1.22473ZM22.0133 7.25077L24.4352 5.85115C23.6092 4.63165 22.5885 3.55654 21.4138 2.66892L20.0144 5.09493C20.7774 5.71722 21.4501 6.4428 22.0133 7.25077ZM13.3498 23.8917C10.5459 23.8917 7.85687 22.7766 5.87422 20.7916C3.89157 18.8067 2.77773 16.1146 2.77773 13.3074C2.77773 8.36478 6.16457 4.22354 10.7398 3.06078C11.4292 2.8856 11.9601 2.29464 11.9601 1.58342C11.9601 0.742901 11.2293 0.0809333 10.4093 0.265406C4.44811 1.60643 -0.00439446 6.93582 -0.00439446 13.3074C-0.00457717 15.0634 0.340751 16.8022 1.01187 18.4245C1.68298 20.0468 2.66674 21.5209 3.90696 22.7625C5.14718 24.0042 6.61956 24.9891 8.24002 25.661C9.86047 26.3328 11.5973 26.6786 13.3512 26.6784C19.4953 26.6784 24.6587 22.5185 26.2115 16.8595C26.4398 16.0277 25.7732 15.2586 24.9106 15.2586C24.2294 15.2586 23.6548 15.7482 23.4562 16.3998C22.1352 20.7355 18.113 23.8917 13.3498 23.8917Z" fill="white"/>
</svg>
