<svg width="18" height="18" viewBox="0 0 18 18" fill="none" xmlns="http://www.w3.org/2000/svg">
<path d="M15.5047 0.46763C16.6921 0.319112 17.667 1.30339 17.667 2.50001C17.667 3.69663 16.6898 4.64777 15.5091 4.84251C10.0337 5.74563 5.74595 10.0334 4.84282 15.5088C4.64808 16.6895 3.69694 17.6667 2.50033 17.6667C1.30371 17.6667 0.319427 16.6918 0.467945 15.5044C1.44739 7.67394 7.67426 1.44708 15.5047 0.46763ZM15.5145 7.0496C16.687 6.8108 17.667 7.80339 17.667 9.00001C17.667 10.1966 16.6708 11.1304 15.5382 11.5166C13.6468 12.1615 12.1618 13.6465 11.5169 15.5379C11.1307 16.6705 10.1969 17.6667 9.00033 17.6667C7.80371 17.6667 6.81111 16.6867 7.04992 15.5142C7.9135 11.2739 11.2742 7.91319 15.5145 7.0496ZM15.5894 13.8638C16.6396 13.2902 17.667 14.3034 17.667 15.5C17.667 16.6966 16.6969 17.6667 15.5003 17.6667C14.3037 17.6667 13.2905 16.6393 13.8641 15.5891C14.0604 15.2299 14.3082 14.8972 14.6029 14.6025C14.8975 14.3079 15.2302 14.0601 15.5894 13.8638Z" fill="white"/>
</svg>
