<svg width="18" height="18" viewBox="0 0 18 18" fill="none" xmlns="http://www.w3.org/2000/svg">
<path d="M2.82927 17.8657C1.64191 18.0142 0.666992 17.03 0.666992 15.8333V15.8333C0.666992 14.6367 1.6442 13.6856 2.82487 13.4908C8.30027 12.5877 12.588 8.29994 13.4912 2.82454C13.6859 1.64388 14.637 0.666666 15.8337 0.666666V0.666666C17.0303 0.666666 18.0146 1.64158 17.866 2.82895C16.8866 10.6594 10.6597 16.8863 2.82927 17.8657ZM2.81949 11.2837C1.64695 11.5225 0.666992 10.53 0.666992 9.33333V9.33333C0.666992 8.13672 1.66321 7.20298 2.79579 6.81679C4.68717 6.17185 6.17217 4.68685 6.81711 2.79546C7.20331 1.66288 8.13704 0.666666 9.33366 0.666666V0.666666C10.5303 0.666666 11.5229 1.64662 11.2841 2.81917C10.4205 7.05943 7.05975 10.4202 2.81949 11.2837ZM2.74454 4.46951C1.6944 5.04318 0.666992 4.02995 0.666992 2.83333V2.83333C0.666992 1.63672 1.63704 0.666666 2.83366 0.666666V0.666666C4.03028 0.666666 5.04351 1.69408 4.46984 2.74422C4.2736 3.10344 4.02577 3.43615 3.73112 3.7308C3.43647 4.02544 3.10376 4.27328 2.74454 4.46951Z" fill="white"/>
</svg>
